<?xml version="1.0" encoding="utf-8"?>
<!-- Generator: Adobe Illustrator 24.0.1, SVG Export Plug-In . SVG Version: 6.00 Build 0)  -->
<svg version="1.1" id="Calque_1" xmlns="http://www.w3.org/2000/svg" xmlns:xlink="http://www.w3.org/1999/xlink" x="0px" y="0px"
	 viewBox="0 0 2043 479" style="enable-background:new 0 0 2043 479;" xml:space="preserve">
<style type="text/css">
	.st0{fill:#C59C5E;}
</style>
<g>
	<g>
		<path class="st0" d="M302.77,427c-12.34,0-26.17-2.5-41.5-7.5c-15.34-5-31.09-11-47.25-18c-16.17-7-31.92-13.67-47.25-20
			c-8.34,9-17.34,16-27,21c-9.67,5-20,7.5-31,7.5c-11.67,0-21.75-2.59-30.25-7.75c-8.5-5.17-15-11.42-19.5-18.75s-6.75-14-6.75-20
			c0-6.66,3-12.5,9-17.5s16.67-7.5,32-7.5c9,0,18.91,0.92,29.75,2.75c10.83,1.84,21.91,4.25,33.25,7.25
			c7.66-13.33,14.75-29,21.25-47s12.91-36.91,19.25-56.75c6.33-19.83,12.66-39.25,19-58.25c-16.67-5.66-29.5-13.58-38.5-23.75
			c-9-10.16-13.5-20.41-13.5-30.75c0-6.66,1.66-13.25,5-19.75c3.33-6.5,8.16-12,14.5-16.5c6.33-4.5,13.83-6.75,22.5-6.75
			c-4.34,5.34-7.09,11.34-8.25,18c-1.17,6.67-1.75,12-1.75,16c0,11,2.5,20.34,7.5,28c5,7.67,11.16,13.67,18.5,18
			c6.33-19,13.08-37.25,20.25-54.75c7.16-17.5,15.16-33,24-46.5c8.83-13.5,18.66-24.25,29.5-32.25c10.83-8,23.08-12,36.75-12
			c7.66,0,15.75,1.59,24.25,4.75c8.5,3.17,15.83,8.59,22,16.25c6.16,7.67,9.25,18.67,9.25,33c0,11.34-2.42,23.5-7.25,36.5
			c-4.84,13-12.42,25.42-22.75,37.25c-10.34,11.84-23.59,21.67-39.75,29.5c-16.17,7.84-35.75,12.09-58.75,12.75
			c-0.67,0-1.42,0-2.25,0c-0.84,0-1.59,0-2.25,0c-6.34,19.34-13,38.84-20,58.5c-7,19.67-14.5,38.5-22.5,56.5s-16.67,34-26,48
			c13,3.67,27.41,7.84,43.25,12.5c15.83,4.67,31.66,8.59,47.5,11.75c15.83,3.16,29.75,4.75,41.75,4.75c8,0,15.41-0.92,22.25-2.75
			c6.83-1.83,14.08-4.58,21.75-8.25c-6.67,18.66-14.92,32.08-24.75,40.25C328.18,422.92,316.43,427,302.77,427z M103.77,391.5
			c8.66,0,15.66-1.92,21-5.75c5.33-3.83,10.66-8.58,16-14.25c-10.34-3.66-20-6.75-29-9.25s-16.84-3.75-23.5-3.75
			c-6.33,0-10.91,1.17-13.75,3.5c-2.83,2.34-4.25,5.17-4.25,8.5c0,5.34,3.34,10.17,10,14.5S94.77,391.5,103.77,391.5z M260.27,177
			c14.66-1,27.66-5.66,39-14c11.33-8.33,21-18.33,29-30c8-11.66,14.08-23.58,18.25-35.75c4.16-12.16,6.25-22.75,6.25-31.75
			c0-8.66-1.67-14.58-5-17.75c-3.34-3.16-7.17-4.75-11.5-4.75c-9.67,0-18.84,6.17-27.5,18.5c-8.67,12.34-16.92,28.59-24.75,48.75
			C276.18,130.42,268.27,152.67,260.27,177z"/>
		<path class="st0" d="M447.26,405.5c-21.34,0-37.75-5.75-49.25-17.25s-17.25-25.91-17.25-43.25c0-14.66,3.75-30.25,11.25-46.75
			s17.58-32,30.25-46.5c12.66-14.5,26.66-26.25,42-35.25c15.33-9,30.66-13.5,46-13.5c8.66,0,16.91,2.25,24.75,6.75
			c7.83,4.5,11.75,13.42,11.75,26.75c0,12.67-3.67,24.5-11,35.5c-7.34,11-17.17,20.84-29.5,29.5
			c-12.34,8.67-25.92,15.75-40.75,21.25c-14.84,5.5-29.75,9.09-44.75,10.75c-0.34,1.34-0.59,2.75-0.75,4.25
			c-0.17,1.5-0.25,3.92-0.25,7.25c0,1.67,0.25,4.59,0.75,8.75c0.5,4.17,1.91,8.59,4.25,13.25c2.33,4.67,6.16,8.67,11.5,12
			c5.33,3.34,12.66,5,22,5c14,0,28.08-3.91,42.25-11.75c14.16-7.83,27.5-18.25,40-31.25s22.91-27.5,31.25-43.5l10,8
			c-9,20-20.59,37.5-34.75,52.5c-14.17,15-29.84,26.66-47,35C482.84,401.33,465.26,405.5,447.26,405.5z M426.26,315
			c8.66-1,18.33-4,29-9c10.66-5,20.91-11.33,30.75-19c9.83-7.66,17.91-16.08,24.25-25.25c6.33-9.16,9.5-18.41,9.5-27.75
			c0-3.66-0.67-6.16-2-7.5c-1.34-1.33-3.5-2-6.5-2c-7.67,0-15.67,2.75-24,8.25c-8.34,5.5-16.5,12.67-24.5,21.5
			c-8,8.84-15.17,18.59-21.5,29.25C434.93,294.17,429.93,304.67,426.26,315z"/>
		<path class="st0" d="M732.75,398.5c-15.67,0-26.59-5.25-32.75-15.75c-6.17-10.5-9.25-22.91-9.25-37.25c0-16.33,3-35.5,9-57.5
			s13.91-45.08,23.75-69.25c9.83-24.16,20.66-47.83,32.5-71c11.83-23.16,23.75-44.08,35.75-62.75c12-18.66,23.08-33.58,33.25-44.75
			c10.16-11.16,18.41-16.75,24.75-16.75c4.33,0,8,2.25,11,6.75s5.41,9.84,7.25,16c1.83,6.17,2.75,11.92,2.75,17.25
			c0,9-2.25,20.75-6.75,35.25c-4.5,14.5-10.84,30.42-19,47.75c-8.17,17.34-17.84,35.09-29,53.25c-11.17,18.17-23.5,35.42-37,51.75
			c-13.5,16.34-27.92,30.5-43.25,42.5c-1.34,8.34-2.59,16.59-3.75,24.75c-1.17,8.17-1.75,15.59-1.75,22.25c0,12,2,20.75,6,26.25
			s9.16,8.25,15.5,8.25c8.33,0,16.91-3.91,25.75-11.75c8.83-7.83,17.33-17.83,25.5-30c8.16-12.16,15.25-24.75,21.25-37.75l12,6.5
			c-14.34,29.67-30.34,53.09-48,70.25C770.58,389.92,752.08,398.5,732.75,398.5z M744.75,263c11.33-12.33,22.08-25.75,32.25-40.25
			c10.16-14.5,19.5-29.25,28-44.25s15.91-29.5,22.25-43.5c6.33-14,11.25-26.58,14.75-37.75c3.5-11.16,5.41-20.08,5.75-26.75
			c0-0.33,0-0.58,0-0.75c0-0.16,0-0.41,0-0.75c-2.67,0-6.92,3.75-12.75,11.25c-5.84,7.5-12.75,17.75-20.75,30.75
			S798,138.84,789.5,155.5c-8.5,16.67-16.67,34.25-24.5,52.75C757.17,226.75,750.42,245,744.75,263z"/>
		<path class="st0" d="M852.25,398.5c-14.67,0-25.67-4.34-33-13s-11-19.16-11-31.5c0-7.66,1.34-17.33,4-29
			c2.66-11.66,6.41-23.91,11.25-36.75c4.83-12.83,10.41-24.91,16.75-36.25c6.33-11.33,13.16-20.58,20.5-27.75
			c7.33-7.16,14.66-10.75,22-10.75c4,0,7.5,1.25,10.5,3.75s4.5,6.09,4.5,10.75c0,4.34-2.59,10.84-7.75,19.5
			c-5.17,8.67-11.17,18.67-18,30c-6.84,11.34-12.84,23.09-18,35.25c-5.17,12.17-7.75,23.75-7.75,34.75
			c0,10.67,1.91,17.75,5.75,21.25c3.83,3.5,9.41,5.25,16.75,5.25c11.33,0,23.66-5.66,37-17c13.33-11.33,27.16-31.16,41.5-59.5l7.5,8
			c-11.67,29.34-26.5,52.17-44.5,68.5S872.92,398.5,852.25,398.5z M911.25,173c-6.34,0-12.09-1.58-17.25-4.75
			c-5.17-3.16-7.75-8.08-7.75-14.75c0-8,4.33-14.83,13-20.5c8.66-5.66,17.66-8.5,27-8.5c6,0,11.08,1.34,15.25,4
			c4.16,2.67,6.25,7.5,6.25,14.5s-3.84,13.75-11.5,20.25C928.58,169.75,920.25,173,911.25,173z"/>
		<path class="st0" d="M979.75,406.5c-14.67,0-26.5-4.34-35.5-13c-9-8.67-13.5-21.83-13.5-39.5c0-13.66,2.59-30.66,7.75-51
			c5.16-20.33,11.75-41.33,19.75-63c-2.34-0.66-5.09-1.25-8.25-1.75c-3.17-0.5-6.25-1.41-9.25-2.75V220
			c5.33,0.67,9.75,1.17,13.25,1.5c3.5,0.34,7.08,0.67,10.75,1c7-17.66,14.58-34.75,22.75-51.25c8.16-16.5,16.33-31.25,24.5-44.25
			c8.16-13,15.91-23.25,23.25-30.75c7.33-7.5,13.83-11.25,19.5-11.25c3.33,0,6.5,1.25,9.5,3.75s4.5,6.09,4.5,10.75
			c0,6.67-3.42,16.17-10.25,28.5c-6.84,12.34-15.25,26.75-25.25,43.25s-19.67,34.09-29,52.75c2.66,0,5.33,0,8,0c2.66,0,5.16,0,7.5,0
			c14.66,0,27.91-0.25,39.75-0.75c11.83-0.5,23.91-1.41,36.25-2.75V237c-18.34,1.67-35.17,3-50.5,4c-15.34,1-30,1.67-44,2
			c-1,0-2,0-3,0s-2,0-3,0c-7,16.34-13.09,33.09-18.25,50.25c-5.17,17.17-7.75,33.92-7.75,50.25c0,13.67,2.16,23.34,6.5,29
			c4.33,5.67,11.16,8.5,20.5,8.5c16.66,0,33.75-7.58,51.25-22.75c17.5-15.16,32.75-35.75,45.75-61.75l7,5
			c-8.67,19.67-19.42,37.5-32.25,53.5c-12.84,16-26.75,28.58-41.75,37.75C1011.25,401.92,995.75,406.5,979.75,406.5z"/>
		<path class="st0" d="M1123.74,406.5c-14.67,0-26.5-4.34-35.5-13c-9-8.67-13.5-21.83-13.5-39.5c0-13.66,2.59-30.66,7.75-51
			c5.16-20.33,11.75-41.33,19.75-63c-2.34-0.66-5.09-1.25-8.25-1.75c-3.17-0.5-6.25-1.41-9.25-2.75V220
			c5.33,0.67,9.75,1.17,13.25,1.5c3.5,0.34,7.08,0.67,10.75,1c7-17.66,14.58-34.75,22.75-51.25c8.16-16.5,16.33-31.25,24.5-44.25
			c8.16-13,15.91-23.25,23.25-30.75c7.33-7.5,13.83-11.25,19.5-11.25c3.33,0,6.5,1.25,9.5,3.75s4.5,6.09,4.5,10.75
			c0,6.67-3.42,16.17-10.25,28.5c-6.84,12.34-15.25,26.75-25.25,43.25s-19.67,34.09-29,52.75c2.66,0,5.33,0,8,0c2.66,0,5.16,0,7.5,0
			c14.66,0,27.91-0.25,39.75-0.75c11.83-0.5,23.91-1.41,36.25-2.75V237c-18.34,1.67-35.17,3-50.5,4c-15.34,1-30,1.67-44,2
			c-1,0-2,0-3,0s-2,0-3,0c-7,16.34-13.09,33.09-18.25,50.25c-5.17,17.17-7.75,33.92-7.75,50.25c0,13.67,2.16,23.34,6.5,29
			c4.33,5.67,11.16,8.5,20.5,8.5c16.66,0,33.75-7.58,51.25-22.75c17.5-15.16,32.75-35.75,45.75-61.75l7,5
			c-8.67,19.67-19.42,37.5-32.25,53.5c-12.84,16-26.75,28.58-41.75,37.75C1155.24,401.92,1139.74,406.5,1123.74,406.5z"/>
		<path class="st0" d="M1261.74,399.5c-15.34,0-26.67-4.59-34-13.75s-11-20.41-11-33.75c0-17.33,3.09-33.5,9.25-48.5
			s14-28.58,23.5-40.75c9.5-12.16,19.75-22.58,30.75-31.25c11-8.66,21.41-15.33,31.25-20c9.83-4.66,17.91-7,24.25-7
			c1.66,0,4,0.34,7,1c3,0.67,5.16,2.34,6.5,5c1-0.66,2.08-1.16,3.25-1.5c1.16-0.33,2.41-0.5,3.75-0.5c9.33,0,15.41,2.67,18.25,8
			c2.83,5.34,4.25,11.17,4.25,17.5c0,5.67-1.59,12.17-4.75,19.5c-3.17,7.34-6.34,15.42-9.5,24.25c-3.17,8.84-4.75,18.92-4.75,30.25
			c0,6,1.75,10.59,5.25,13.75c3.5,3.17,7.58,4.75,12.25,4.75c13,0,23.66-2.91,32-8.75c8.33-5.83,15.16-13.58,20.5-23.25
			c5.33-9.66,9.83-20.25,13.5-31.75c3.66-11.5,7.16-22.91,10.5-34.25c-3-3.66-4.5-7.83-4.5-12.5c0-7.33,1.5-13.75,4.5-19.25
			s6.41-9.83,10.25-13c3.83-3.16,6.91-4.75,9.25-4.75c5.33,0,8.5,2,9.5,6s1.5,7.17,1.5,9.5c0,1.67-0.92,4.67-2.75,9
			c-1.84,4.34-2.75,7.34-2.75,9c0,3.34,2.75,6.75,8.25,10.25s11.75,7.59,18.75,12.25c7,4.67,13.25,10.59,18.75,17.75
			c5.5,7.17,8.25,16.09,8.25,26.75c0,10-2,20-6,30s-8,19.34-12,28c-4,8.67-6,16.17-6,22.5c0,5,1.25,8.25,3.75,9.75
			s5.41,2.25,8.75,2.25c7.66,0,15.75-2.41,24.25-7.25c8.5-4.83,16.75-11.08,24.75-18.75c8-7.66,15.16-15.75,21.5-24.25
			c6.33-8.5,11-16.25,14-23.25l10,7c-6.67,14.34-15.5,28.5-26.5,42.5s-23.42,25.67-37.25,35c-13.84,9.33-28.25,14-43.25,14
			c-12.34,0-22.42-3.34-30.25-10c-7.84-6.66-11.75-15.16-11.75-25.5c0-9.66,2.16-19.83,6.5-30.5c4.33-10.66,8.66-21,13-31
			c4.33-10,6.5-19,6.5-27c0-8.66-2.84-15.75-8.5-21.25c-5.67-5.5-11.67-9.91-18-13.25c-4,12-8.42,24.34-13.25,37
			c-4.84,12.67-10.75,24.25-17.75,34.75s-15.84,19-26.5,25.5c-10.67,6.5-24,9.75-40,9.75c-4.34,0-9.25-0.66-14.75-2
			c-5.5-1.33-10.09-2.66-13.75-4c-9,17.67-20.75,32.09-35.25,43.25S1276.07,399.5,1261.74,399.5z M1271.24,374.5
			c4.33,0,9.75-2.16,16.25-6.5c6.5-4.33,13-10.08,19.5-17.25c6.5-7.16,11.58-14.75,15.25-22.75c-7-9.33-10.5-23.33-10.5-42
			c0-4,0.58-9.33,1.75-16c1.16-6.66,2.83-13.58,5-20.75c2.16-7.16,4.75-13.25,7.75-18.25c-6.67,6.34-13.42,13.42-20.25,21.25
			c-6.84,7.84-13.25,16-19.25,24.5s-11.34,17-16,25.5c-4.67,8.5-8.34,16.84-11,25c-2.67,8.17-4,15.92-4,23.25
			c0,9,1.41,15.25,4.25,18.75C1262.82,372.75,1266.57,374.5,1271.24,374.5z"/>
		<path class="st0" d="M1623.23,407c-11,0-20.59-3.67-28.75-11c-8.16-7.34-12.25-18.33-12.25-33c0-11.66,2.67-24.33,8-38
			c5.33-13.66,12.66-27.16,22-40.5c9.33-13.33,20-25.41,32-36.25c12-10.83,24.83-19.58,38.5-26.25c13.66-6.66,27.33-10,41-10
			c14.33,0,26.5,3.67,36.5,11c10,7.34,15,17,15,29c0,9-3.17,15.5-9.5,19.5c-6.34,4-13.84,5.17-22.5,3.5c0.66-3,1.25-6,1.75-9
			s0.75-6.16,0.75-9.5c0-6.66-1.34-12.66-4-18c-2.67-5.33-8.34-8-17-8c-9.34,0-18.84,3.17-28.5,9.5
			c-9.67,6.34-18.92,14.59-27.75,24.75c-8.84,10.17-16.75,21.34-23.75,33.5c-7,12.17-12.5,24.09-16.5,35.75c-4,11.67-6,22.17-6,31.5
			c0,10.67,3.83,16,11.5,16c7.66,0,16.16-3.75,25.5-11.25c9.33-7.5,18.75-16.91,28.25-28.25c9.5-11.33,18.58-22.91,27.25-34.75
			c8.66-11.83,16.16-21.91,22.5-30.25c1-1.66,2.33-2.5,4-2.5c1.33,0.34,3.91,1.09,7.75,2.25c3.83,1.17,7.41,2.92,10.75,5.25
			c3.33,2.34,5,5.34,5,9c0,3.34-1.42,7.59-4.25,12.75c-2.84,5.17-6.17,10.84-10,17c-3.84,6.17-7.17,12.34-10,18.5
			c-2.84,6.17-4.25,12.09-4.25,17.75c0,4.34,1.16,8.42,3.5,12.25c2.33,3.84,6.16,5.75,11.5,5.75c8,0,19.25-5.91,33.75-17.75
			c14.5-11.83,29.25-31.91,44.25-60.25l9.5,9.5c-8,18-17.59,33.92-28.75,47.75c-11.17,13.84-22.92,24.67-35.25,32.5
			c-12.34,7.83-24.84,11.75-37.5,11.75c-13.67,0-23.84-4.34-30.5-13c-6.67-8.66-10.34-18-11-28c0-0.66,0-1.16,0-1.5
			c0-0.33,0-0.66,0-1c-13.34,16-25.59,28.66-36.75,38C1647.81,402.33,1635.9,407,1623.23,407z"/>
		<path class="st0" d="M1860.23,398.5c-15.67,0-26.59-5.25-32.75-15.75c-6.17-10.5-9.25-22.91-9.25-37.25c0-16.33,3-35.5,9-57.5
			s13.91-45.08,23.75-69.25c9.83-24.16,20.66-47.83,32.5-71c11.83-23.16,23.75-44.08,35.75-62.75c12-18.66,23.08-33.58,33.25-44.75
			c10.16-11.16,18.41-16.75,24.75-16.75c4.33,0,8,2.25,11,6.75s5.41,9.84,7.25,16c1.83,6.17,2.75,11.92,2.75,17.25
			c0,9-2.25,20.75-6.75,35.25s-10.84,30.42-19,47.75c-8.17,17.34-17.84,35.09-29,53.25c-11.17,18.17-23.5,35.42-37,51.75
			c-13.5,16.34-27.92,30.5-43.25,42.5c-1.34,8.34-2.59,16.59-3.75,24.75c-1.17,8.17-1.75,15.59-1.75,22.25c0,12,2,20.75,6,26.25
			s9.16,8.25,15.5,8.25c8.33,0,16.91-3.91,25.75-11.75c8.83-7.83,17.33-17.83,25.5-30c8.16-12.16,15.25-24.75,21.25-37.75l12,6.5
			c-14.34,29.67-30.34,53.09-48,70.25C1898.05,389.92,1879.55,398.5,1860.23,398.5z M1872.23,263
			c11.33-12.33,22.08-25.75,32.25-40.25c10.16-14.5,19.5-29.25,28-44.25s15.91-29.5,22.25-43.5c6.33-14,11.25-26.58,14.75-37.75
			c3.5-11.16,5.41-20.08,5.75-26.75c0-0.33,0-0.58,0-0.75c0-0.16,0-0.41,0-0.75c-2.67,0-6.92,3.75-12.75,11.25
			c-5.84,7.5-12.75,17.75-20.75,30.75s-16.25,27.84-24.75,44.5c-8.5,16.67-16.67,34.25-24.5,52.75
			C1884.64,226.75,1877.89,245,1872.23,263z"/>
	</g>
</g>
</svg>
